<svg xmlns="http://www.w3.org/2000/svg" xmlns:xlink="http://www.w3.org/1999/xlink" viewBox="0 0 134 133.23"><defs><style>.a{fill:#fff;}.a,.g{fill-rule:evenodd;}.b{mask:url(#a);}.c{fill:#0065a9;}.d{fill:#007acc;}.e{fill:#1f9cf0;}.f{opacity:0.25;}.g{fill:url(#b);}</style><mask id="a" x="0" y="0" width="134" height="133.23" maskUnits="userSpaceOnUse"><g transform="translate(-59 -61.39)"><path class="a" d="M154.05,194a8.31,8.31,0,0,0,6.64-.25l27.57-13.27A8.35,8.35,0,0,0,193,173V83a8.35,8.35,0,0,0-4.74-7.54L160.69,62.21a8.36,8.36,0,0,0-8.52.77,7.94,7.94,0,0,0-1,.85L98.39,112l-23-17.46a5.58,5.58,0,0,0-7.12.32l-7.37,6.71a5.58,5.58,0,0,0,0,8.25L80.84,128,60.9,146.19a5.58,5.58,0,0,0,0,8.25l7.37,6.71a5.58,5.58,0,0,0,7.12.32l23-17.46,52.79,48.16A8.28,8.28,0,0,0,154.05,194Zm5.49-96.44-40,30.4,40.05,30.4Z"/></g></mask><linearGradient id="b" x1="125.96" y1="196.61" x2="125.96" y2="63.39" gradientTransform="matrix(1, 0, 0, -1, 0, 258)" gradientUnits="userSpaceOnUse"><stop offset="0" stop-color="#fff"/><stop offset="1" stop-color="#fff" stop-opacity="0"/></linearGradient></defs><g class="b"><path class="c" d="M188.26,75.5,160.67,62.21a8.35,8.35,0,0,0-9.52,1.62L60.82,146.19a5.57,5.57,0,0,0,0,8.25l7.37,6.71a5.59,5.59,0,0,0,7.13.32L184.11,79A5.54,5.54,0,0,1,193,83.36V83A8.35,8.35,0,0,0,188.26,75.5Z" transform="translate(-59 -61.39)"/><path class="d" d="M188.26,180.5l-27.59,13.29a8.35,8.35,0,0,1-9.52-1.62L60.82,109.81a5.57,5.57,0,0,1,0-8.25l7.37-6.71a5.59,5.59,0,0,1,7.13-.32l108.78,82.52a5.54,5.54,0,0,0,8.89-4.41V173A8.36,8.36,0,0,1,188.26,180.5Z" transform="translate(-59 -61.39)"/><path class="e" d="M160.67,193.79a8.34,8.34,0,0,1-9.52-1.62,4.9,4.9,0,0,0,8.37-3.47V67.3a4.9,4.9,0,0,0-8.37-3.47,8.34,8.34,0,0,1,9.52-1.62l27.59,13.27A8.35,8.35,0,0,1,193,83v90a8.35,8.35,0,0,1-4.74,7.54Z" transform="translate(-59 -61.39)"/><g class="f"><path class="g" d="M154,194a8.33,8.33,0,0,0,6.65-.25l27.57-13.27a8.35,8.35,0,0,0,4.74-7.54V83a8.35,8.35,0,0,0-4.74-7.54L160.61,62.21a8.36,8.36,0,0,0-8.52.77,8.83,8.83,0,0,0-1,.85L98.31,112l-23-17.46a5.58,5.58,0,0,0-7.12.32l-7.37,6.71a5.57,5.57,0,0,0,0,8.25L80.76,128,60.82,146.19a5.57,5.57,0,0,0,0,8.25l7.37,6.71a5.58,5.58,0,0,0,7.12.32l23-17.46,52.78,48.16A8.47,8.47,0,0,0,154,194Zm5.5-96.44L119.41,128l40.05,30.4Z" transform="translate(-59 -61.39)"/></g></g></svg>