<svg xmlns="http://www.w3.org/2000/svg" width="106.283" height="52.409" viewBox="0 0 106.283 52.409">
  <g id="Group_16385" data-name="Group 16385" transform="translate(-988.47 -404)">
    <g id="Group_16377" data-name="Group 16377" transform="translate(988.47 404)">
      <path id="Path_7064" data-name="Path 7064" d="M21.319,38.745a4.723,4.723,0,0,0,.533-.314L8.425,52.016a1.305,1.305,0,0,1-1.286.345,1.287,1.287,0,0,1-.878-1.6L10.245,37.02A9.589,9.589,0,0,0,21.319,38.745ZM9.492,23.53H24.457v1.694H21.7a1.067,1.067,0,1,0,0,2.133h2.761v2.792a7.478,7.478,0,0,1-13.522,4.424V34.51h4.486a1.067,1.067,0,1,0,0-2.133H9.837a5.6,5.6,0,0,1-.282-1.443h2.918a1.067,1.067,0,1,0,0-2.133H9.492V27.357H16.08a1.067,1.067,0,1,0,0-2.133H9.492Zm9.882,9.914a1.067,1.067,0,1,0-1.067,1.067A1.058,1.058,0,0,0,19.374,33.443Zm.847,0a1.067,1.067,0,1,0,1.067-1.067A1.078,1.078,0,0,0,20.221,33.443Zm0-3.576A1.058,1.058,0,0,0,19.155,28.8H15.3a1.067,1.067,0,1,0,0,2.133h3.859A1.058,1.058,0,0,0,20.221,29.867ZM17.806,26.29a1.067,1.067,0,1,0,1.067-1.067A1.078,1.078,0,0,0,17.806,26.29ZM8.425,21.4h2.6V17.569a6.035,6.035,0,0,1,.878-3.106l-3.42-3.326A1.067,1.067,0,0,1,9.962,9.6l3.357,3.263a5.892,5.892,0,0,1,7.31,0L23.986,9.6a1.065,1.065,0,1,1,1.475,1.537l-3.388,3.326a6.035,6.035,0,0,1,.878,3.106V21.4h.188c0-.031,0-.031.031-.063L32.708,1.851a1.279,1.279,0,0,0-.6-1.726A1.231,1.231,0,0,0,31.547,0H12.88a1.256,1.256,0,0,0-1.192.816L4.472,19.388a5.209,5.209,0,0,0,.5.659A4.4,4.4,0,0,0,8.425,21.4ZM7.609,32.408a9.071,9.071,0,0,1-.251-2.259V23.435a6.2,6.2,0,0,1-3.765-1.757L.111,30.714a1.285,1.285,0,0,0,.722,1.663,1.259,1.259,0,0,0,.471.094H7.2A2.159,2.159,0,0,1,7.609,32.408Zm17.726,2.541.408-.439h-.188C25.492,34.667,25.4,34.792,25.335,34.949Zm9.412-11.42a1.386,1.386,0,0,0-.878-.376H27.908a8.512,8.512,0,0,1-1.286.282v6.714a9.282,9.282,0,0,1-.282,2.259,6.135,6.135,0,0,1,1.286.22l7.153-7.247A1.3,1.3,0,0,0,34.747,23.53Zm-15.31-8.878a3.818,3.818,0,0,0-5.365.439,3.777,3.777,0,0,0-.91,2.478V21.4h7.655V17.569a3.807,3.807,0,0,0-.941-2.478A5.8,5.8,0,0,0,19.437,14.651Z" transform="translate(-0.025 0)" fill="#007acc" opacity="0.119"/>
      <path id="Path_7065" data-name="Path 7065" d="M57.867,82.533A1.067,1.067,0,1,0,56.8,81.467,1.058,1.058,0,0,0,57.867,82.533Z" transform="translate(-38.988 -55.176)" fill="#93c83c"/>
      <path id="Path_7066" data-name="Path 7066" d="M55.967,103.2a1.067,1.067,0,1,0,1.067,1.067A1.058,1.058,0,0,0,55.967,103.2Z" transform="translate(-37.684 -70.823)" fill="#00b4bd"/>
      <path id="Path_7067" data-name="Path 7067" d="M51.292,92.867a1.058,1.058,0,0,1-1.067,1.067H46.367a1.067,1.067,0,0,1,0-2.133h3.859A1.058,1.058,0,0,1,51.292,92.867Zm1.067,2.51a1.067,1.067,0,1,0,1.067,1.067A1.058,1.058,0,0,0,52.359,95.376Z" transform="translate(-31.096 -63)" fill="#1f9cf0"/>
      <path id="Path_7068" data-name="Path 7068" d="M30.461,52.923a5.806,5.806,0,0,0-1.286-.22,9.1,9.1,0,0,0,.282-2.259V43.731a4.5,4.5,0,0,0,1.286-.282,6,6,0,0,0,2.635-1.663c2.416-2.573,2.1-6.745,2.1-6.9a1.061,1.061,0,0,0-1.161-.973,1.073,1.073,0,0,0-.973,1.129c0,.031.22,3.42-1.537,5.333a4.421,4.421,0,0,1-3.42,1.318h-2.6V37.864a6.035,6.035,0,0,0-.878-3.106l3.42-3.357a1.065,1.065,0,1,0-1.475-1.537l-3.388,3.294a5.892,5.892,0,0,0-7.31,0L12.8,29.9a1.084,1.084,0,0,0-1.506.125,1.057,1.057,0,0,0,.031,1.412l3.42,3.326a6.035,6.035,0,0,0-.878,3.106v3.827h-2.6a4.421,4.421,0,0,1-3.42-1.318c-.188-.22-.345-.439-.5-.659A8.833,8.833,0,0,1,6.3,35.041a1.07,1.07,0,0,0-2.133-.157c0,.188-.314,4.329,2.1,6.933l.188.188a6.044,6.044,0,0,0,3.765,1.757v6.714a11.073,11.073,0,0,0,.251,2.259c-.125,0-.282.031-.408.031a6.194,6.194,0,0,0-3.8,1.945c-2.416,2.6-2.1,6.745-2.1,6.933a1.04,1.04,0,0,0,1.067.973h.094A1.044,1.044,0,0,0,6.3,61.457c0-.031-.22-3.42,1.537-5.333a4.421,4.421,0,0,1,3.42-1.318,8.687,8.687,0,0,0,1.851,2.51,9.629,9.629,0,0,0,11.106,1.725,4.723,4.723,0,0,0,.533-.314A9.506,9.506,0,0,0,28.2,55.213c.094-.157.157-.282.251-.439h.188a4.314,4.314,0,0,1,3.231,1.318c1.757,1.914,1.537,5.271,1.537,5.333a1.056,1.056,0,0,0,.973,1.129h.094a1.063,1.063,0,0,0,1.067-.973c0-.188.314-4.329-2.1-6.933A7.022,7.022,0,0,0,30.461,52.923ZM16,37.864a3.777,3.777,0,0,1,.91-2.478,3.818,3.818,0,0,1,5.365-.439,2.907,2.907,0,0,1,.439.439,3.98,3.98,0,0,1,.941,2.478v3.827H16Zm3.827,20.079A7.46,7.46,0,0,1,13.8,54.868c0-.031-.031-.031-.031-.063H18.32a1.067,1.067,0,1,0,0-2.133H12.673a5.6,5.6,0,0,1-.282-1.443h2.918a1.067,1.067,0,1,0,0-2.133h-2.98V47.653h6.588a1.067,1.067,0,1,0,0-2.133H12.328V43.825H27.293v1.694H24.532a1.067,1.067,0,1,0,0,2.133h2.761v2.792A7.491,7.491,0,0,1,19.826,57.943Z" transform="translate(-2.862 -20.296)" fill="#0065a9"/>
    </g>
    <path id="Path_7073" data-name="Path 7073" d="M4.423,3.816,7.5.737A.419.419,0,0,0,7.5.13a.419.419,0,0,0-.607,0L3.816,3.209.737.13A.419.419,0,0,0,.13.13a.419.419,0,0,0,0,.607L3.209,3.816.13,6.895a.419.419,0,0,0,0,.607.468.468,0,0,0,.3.13.468.468,0,0,0,.3-.13L3.816,4.423,6.895,7.5a.419.419,0,0,0,.607,0,.419.419,0,0,0,0-.607Z" transform="translate(1038.896 424.5) rotate(45)" fill="#007acc" stroke="#007acc" stroke-width="1"/>
    <g id="file_type_vscode" transform="translate(1053.817 410)">
      <path id="Path_7069" data-name="Path 7069" d="M41.486,6.392,33.057,2.334a2.547,2.547,0,0,0-2.908.494L2.557,27.984a1.7,1.7,0,0,0-.117,2.408c.037.039.073.077.113.113l2.253,2.047a1.7,1.7,0,0,0,2.177.1l33.236-25.2a1.693,1.693,0,0,1,2.716,1.348v-.1a2.555,2.555,0,0,0-1.447-2.3Z" transform="translate(-1.998 -2.081)" fill="#0065a9"/>
      <path id="Path_7070" data-name="Path 7070" d="M41.486,35.375l-8.429,4.06a2.551,2.551,0,0,1-2.908-.494L2.557,13.784a1.7,1.7,0,0,1-.117-2.408c.037-.039.073-.077.113-.113L4.805,9.217a1.7,1.7,0,0,1,2.181-.1l33.231,25.2a1.693,1.693,0,0,0,2.716-1.348v.105a2.557,2.557,0,0,1-1.447,2.3Z" transform="translate(-1.998 1.009)" fill="#007acc"/>
      <path id="Path_7071" data-name="Path 7071" d="M24.165,42.525a2.551,2.551,0,0,1-2.908-.494,1.5,1.5,0,0,0,2.551-1.06V3.886a1.5,1.5,0,0,0-2.557-1.058,2.55,2.55,0,0,1,2.908-.5l8.428,4.052a2.555,2.555,0,0,1,1.455,2.3V36.17a2.556,2.556,0,0,1-1.449,2.3Z" transform="translate(6.895 -2.081)" fill="#1f9cf0"/>
    </g>
  </g>
</svg>
